Coordinates
version=1
nRows=10
nColumns=40
inDegrees=yes

Units are S.I. units (second, meters, Newtons, ...)
Angles are in degrees.

endheader
time	pelvis_tilt	pelvis_list	pelvis_rotation	pelvis_tx	pelvis_ty	pelvis_tz	hip_flexion_r	hip_adduction_r	hip_rotation_r	knee_angle_r	knee_angle_r_beta	ankle_angle_r	subtalar_angle_r	mtp_angle_r	hip_flexion_l	hip_adduction_l	hip_rotation_l	knee_angle_l	knee_angle_l_beta	ankle_angle_l	subtalar_angle_l	mtp_angle_l	lumbar_extension	lumbar_bending	lumbar_rotation	arm_flex_r	arm_add_r	arm_rot_r	elbow_flex_r	pro_sup_r	wrist_flex_r	wrist_dev_r	arm_flex_l	arm_add_l	arm_rot_l	elbow_flex_l	pro_sup_l	wrist_flex_l	wrist_dev_l
     50.97000000	     -5.79111489	     -4.30834176	     -1.01218858	      0.93818553	      0.92940295	      0.41173799	     34.28897829	     -7.49650320	     -6.21295201	     75.57674087	     75.57674087	      4.71631345	    -17.55800048	      2.74331333	     18.78224075	     -5.83358685	     -8.28202075	     23.05068697	     23.05068697	     12.75964535	     -7.86597674	     -1.46478584	    -10.65480319	      3.24443241	      2.03780801	     10.55909753	    -14.05562876	      0.33858696	     76.43076386	     45.24871291	      0.00000000	      0.00000000	      8.11829093	    -13.24511786	      5.47238775	     39.77555300	     45.64680723	      0.00000000	      0.00000000
     50.98107143	     -5.64226703	     -4.43315340	     -1.11990877	      0.93712225	      0.92976649	      0.41168623	     35.25851264	     -7.27757603	     -5.93425501	     74.77646367	     74.77646367	      4.59483563	    -17.14140113	      2.57976172	     18.05897612	     -5.95534910	     -8.31331185	     22.98238289	     22.98238289	     13.13595803	     -7.87888564	     -1.55434931	    -10.88692118	      3.45186711	      2.45600896	      8.43958280	    -14.50179473	      0.38327895	     73.69284391	     45.32875800	      0.00000000	      0.00000000	     10.19870597	    -13.54637693	      5.38395277	     40.89947190	     45.69699728	      0.00000000	      0.00000000
     50.99214286	     -5.46646514	     -4.53446607	     -1.25014344	      0.93607882	      0.93017284	      0.41166923	     36.09756826	     -7.05704620	     -5.63132128	     73.81371925	     73.81371925	      4.41180756	    -16.68937738	      2.31645510	     17.28459801	     -6.05105335	     -8.35354520	     22.87342343	     22.87342343	     13.49630967	     -7.88659491	     -1.55242189	    -11.13797079	      3.61543315	      2.77030834	      6.77495519	    -14.67185658	      0.17125835	     70.18611782	     45.44491874	      0.00000000	      0.00000000	     12.12922569	    -13.87257594	      5.50320308	     42.17459985	     45.72559861	      0.00000000	      0.00000000
     51.00321429	     -5.31417476	     -4.61409306	     -1.33512021	      0.93509880	      0.93051414	      0.41166224	     36.81389400	     -6.85574018	     -5.36435340	     72.62106882	     72.62106882	      4.19576953	    -16.31191079	      1.96403726	     16.55597390	     -6.11357339	     -8.35530947	     22.76975951	     22.76975951	     13.87833419	     -7.88375135	     -1.46349078	    -11.35474846	      3.73949143	      2.85652222	      5.60797399	    -14.40561644	     -0.30347157	     65.60113515	     45.60720602	      0.00000000	      0.00000000	     13.84280386	    -14.40923461	      5.91945974	     43.62456234	     45.72782561	      0.00000000	      0.00000000
     51.01428571	     -5.18853183	     -4.71209482	     -1.41170479	      0.93417842	      0.93075151	      0.41183344	     37.43066097	     -6.67486723	     -5.24647396	     71.19111222	     71.19111222	      3.93741038	    -16.01045928	      1.37438109	     15.86753494	     -6.20664958	     -8.36510537	     22.69427130	     22.69427130	     14.34415747	     -7.89976292	     -1.16822100	    -11.46196500	      3.84739558	      2.22513258	      5.53428694	    -13.49988294	     -1.15107207	     59.38809127	     45.83328101	      0.00000000	      0.00000000	     14.93711597	    -15.59218628	      6.97066479	     45.57358377	     45.69298841	      0.00000000	      0.00000000
     51.02535714	     -5.03227466	     -4.80679306	     -1.54471775	      0.93332846	      0.93090344	      0.41202450	     37.91702281	     -6.43101363	     -5.06255810	     69.52561254	     69.52561254	      3.85396476	    -15.61440409	      1.42475808	     15.11282575	     -6.29255415	     -8.37348297	     22.56910825	     22.56910825	     14.71886558	     -7.98593793	     -1.14346295	    -11.71604912	      4.03205502	      2.72929841	      3.80827235	    -13.84378142	     -1.08949801	     56.67028925	     45.91039809	      0.00000000	      0.00000000	     16.74421726	    -15.79011320	      6.90558536	     47.17705644	     45.74445082	      0.00000000	      0.00000000
     51.03642857	     -5.01890178	     -4.83330177	     -1.66021551	      0.93243335	      0.93084995	      0.41240562	     38.41956837	     -6.25868390	     -4.95784973	     67.53624822	     67.53624822	      3.70656067	    -15.33900576	      1.19569719	     14.52888653	     -6.31639396	     -8.40215773	     22.45766453	     22.45766453	     15.12386377	     -8.02738249	     -0.96293297	    -11.72697952	      4.04818189	      2.33580572	      3.86789082	    -13.10544958	     -1.98468369	     50.30950385	     46.14676245	      0.00000000	      0.00000000	     17.75060865	    -16.85073051	      7.64356109	     49.42910189	     45.74866100	      0.00000000	      0.00000000
     51.04750000	     -4.87458063	     -4.94679677	     -1.81730552	      0.93167388	      0.93089987	      0.41286947	     38.59570279	     -5.97320600	     -4.94669460	     65.18179855	     65.18179855	      3.68561413	    -15.02638048	      1.32649168	     13.76962560	     -6.42938403	     -8.41162665	     22.31467736	     22.31467736	     15.47637216	     -8.17343374	     -0.95402356	    -11.98452937	      4.24814937	      2.79500785	      2.26956797	    -13.39042832	     -2.02491617	     47.92521370	     46.21748472	      0.00000000	      0.00000000	     19.34585355	    -17.00332921	      7.46604327	     51.13896723	     45.81070544	      0.00000000	      0.00000000
     51.05857143	     -4.90329116	     -4.95095504	     -1.96052010	      0.93089081	      0.93066868	      0.41346355	     38.82031488	     -5.78680378	     -4.98556116	     62.48712850	     62.48712850	      3.47268113	    -14.85994480	      0.83492136	     13.18885861	     -6.43654336	     -8.44557176	     22.14100001	     22.14100001	     15.82920845	     -8.26088041	     -0.89536472	    -11.95828188	      4.26979456	      2.28631980	      2.65503853	    -12.63372336	     -3.23156554	     41.41742913	     46.47515030	      0.00000000	      0.00000000	     19.87635780	    -18.26453117	      7.91185271	     54.30665309	     45.86986161	      0.00000000	      0.00000000
     51.06964286	     -4.88309596	     -4.97188936	     -2.16790016	      0.93023008	      0.93044492	      0.41417442	     38.83759792	     -5.53298773	     -5.06391031	     59.47855600	     59.47855600	      3.49439673	    -14.54667252	      0.93956619	     12.49327740	     -6.45583769	     -8.49863220	     21.90167489	     21.90167489	     16.16570719	     -8.39069388	     -0.92856747	    -12.06992293	      4.35632538	      2.85221651	      1.03998294	    -12.87055089	     -3.37794769	     39.22100156	     46.54289172	      0.00000000	      0.00000000	     21.35663662	    -18.32753626	      7.56843790	     56.25940892	     45.95286561	      0.00000000	      0.00000000
